#!OML:ASF F:\twosubjects\two\wednesday\Session 1\rory1.ASF
:FULLY-SPECIFIED
:DEGREES
258
root 3.70256 18.1187 -13.9508 -173.297 8.39927 184.99
lowerback 1.86645 1.12485 0.42035
upperback 2.53753 1.58135 0.206177
thorax 1.55884 0.82987 -0.0305886
lowerneck -13.226 -1.99155 -0.598026
upperneck 24.6187 -0.399902 -4.22815
head 10.003 -0.299605 -1.35771
rclavicle -9.93923e-016 -1.51076e-014
rhumerus -32.5638 19.4185 -71.2751
rradius 78.8561
rwrist 10.8182
rhand -6.73312 42.7956
rfingers 7.12502
rthumb 19.1275 13.7162
lclavicle -9.93923e-016 -1.51076e-014
lhumerus -63.1903 32.2406 41.2067
lradius 12.4236
lwrist -34.4088
lhand -10.8483 21.4605
lfingers 7.12502
lthumb 15.1667 50.8847
rfemur 13.3591 9.22216 25.0297
rtibia 16.3311
rfoot -2.80653 3.33585
rtoes -10.6773
lfemur -28.4296 -2.35273 -14.5298
ltibia 22.7164
lfoot -8.96774 18.0742
ltoes -5.54279
259
root 3.68345 18.1147 -14.1472 -173.482 8.48087 184.578
lowerback 1.56413 1.0313 -0.124671
upperback 2.69509 1.45756 0.152925
thorax 1.87774 0.760293 0.229148
lowerneck -13.3602 -1.82515 -0.68674
upperneck 24.7476 -0.0713448 -4.39141
head 10.0844 -0.171347 -1.3614
rclavicle 7.95139e-016 2.38542e-015
rhumerus -32.2134 19.6374 -71.2793
rradius 78.6202
rwrist 11.0708
rhand -6.82207 42.5652
rfingers 7.12502
rthumb 19.0419 13.4773
lclavicle 7.95139e-016 2.38542e-015
lhumerus -62.8445 33.1247 40.7398
lradius 12.2996
lwrist -35.6029
lhand -11.619 20.5582
lfingers 7.12502
lthumb 14.4241 50.0369
rfemur 13.0043 9.399 24.5114
rtibia 17.92
rfoot -1.85576 3.74516
rtoes -9.26919
lfemur -28.1815 -2.25053 -15.1249
ltibia 23.2739
lfoot -7.99492 17.0616
ltoes -3.50445
260
root 3.6619 18.1034 -14.3409 -173.635 8.46936 184.164
lowerback 1.47861 0.959064 -0.615197
upperback 2.6477 1.35697 0.102794
thorax 1.86772 0.699598 0.453246
lowerneck -13.2888 -1.74144 -0.755349
upperneck 24.9603 0.193931 -4.65643
head 10.1557 -0.0697441 -1.40953
rclavicle 1.67973e-014 -3.97569e-015
rhumerus -32.2811 19.8303 -71.3442
rradius 78.4587
rwrist 11.1792
rhand -7.15038 42.372
rfingers 7.12502
rthumb 18.7262 13.2533
lclavicle 1.67973e-014 -3.97569e-015
lhumerus -62.7441 34.0325 39.8443
lradius 11.9816
lwrist -37.3676
lhand -12.268 20.1671
lfingers 7.12502
lthumb 13.7988 49.6894
rfemur 12.3944 9.29575 23.9707
rtibia 19.7369
rfoot -0.810668 4.22163
rtoes -10.9087
lfemur -27.947 -1.73807 -15.9282
ltibia 23.8607
lfoot -6.94466 16.0055
ltoes -4.08346
261
root 3.64246 18.0935 -14.5333 -173.771 8.49867 183.603
lowerback 1.5927 0.947945 -1.15745
upperback 2.44259 1.3319 -0.0896974
thorax 1.58617 0.677698 0.554613
lowerneck -13.0518 -1.73692 -0.751786
upperneck 25.1432 0.288386 -4.7862
head 10.1789 -0.021713 -1.44176
rclavicle -1.26228e-014 5.56597e-015
rhumerus -32.5994 19.814 -71.6302
rradius 78.2258
rwrist 11.4907
rhand -7.71257 42.4201
rfingers 7.12502
rthumb 18.1854 13.2502
lclavicle -1.26228e-014 5.56597e-015
lhumerus -62.1508 34.1461 39.8141
lradius 11.8631
lwrist -38.372
lhand -13.5083 20.4149
lfingers 7.12502
lthumb 12.6032 50.0147
rfemur 11.7388 9.13164 23.202
rtibia 21.6981
rfoot 0.364409 4.65148
rtoes -14.344
lfemur -27.6531 -1.11563 -16.9439
ltibia 24.5109
lfoot -6.76863 15.2184
ltoes -4.06517
262
root 3.62051 18.0915 -14.7255 -173.821 8.38211 182.814
lowerback 1.38814 0.844547 -1.88628
upperback 2.38357 1.19739 -0.377583
thorax 1.63522 0.600436 0.67096
lowerneck -13.1177 -1.71762 -0.712508
upperneck 25.3572 0.323911 -4.73243
head 10.2699 0.00814546 -1.42724
rclavicle -2.90226e-014 4.77083e-015
rhumerus -32.6216 19.6546 -71.9162
rradius 78.047
rwrist 11.8963
rhand -7.82255 42.4779
rfingers 7.12502
rthumb 18.0796 13.2982
lclavicle -2.90226e-014 4.77083e-015
lhumerus -60.7245 33.7798 41.0537
lradius 11.9795
lwrist -38.0754
lhand -14.9104 20.4313
lfingers 7.12502
lthumb 11.2512 50.1096
rfemur 10.7438 8.62861 22.0798
rtibia 23.8692
rfoot 1.78869 5.34103
rtoes -15.8273
lfemur -27.445 -0.746648 -18.1684
ltibia 25.2517
lfoot -6.93296 14.6431
ltoes -3.76711
263
root 3.59287 18.0868 -14.9161 -173.87 8.14874 182.344
lowerback 0.975221 0.682427 -2.36108
upperback 2.51185 1.00049 -0.457333
thorax 1.99844 0.491766 0.86223
lowerneck -13.3294 -1.63219 -0.686432
upperneck 25.4281 0.475334 -4.84076
head 10.3416 0.0631428 -1.45385
rclavicle -7.95139e-015 -7.95139e-016
rhumerus -32.2824 19.6795 -71.8865
rradius 77.8928
rwrist 12.1254
rhand -7.54632 42.3868
rfingers 7.12502
rthumb 18.3453 13.2319
lclavicle -7.95139e-015 -7.95139e-016
lhumerus -59.4327 34.0819 41.8833
lradius 11.9587
lwrist -37.9296
lhand -15.5577 19.3508
lfingers 7.12502
lthumb 10.6269 49.0621
rfemur 9.62318 7.93375 21.2396
rtibia 26.2158
rfoot 3.58585 6.26896
rtoes -13.7243
lfemur -27.2047 -0.598997 -18.9874
ltibia 26.0316
lfoot -7.29593 14.0919
ltoes -1.95766
264
root 3.57112 18.0713 -15.0954 -173.976 8.03238 182.294
lowerback 1.17653 0.704272 -2.20577
upperback 2.31409 1.01577 -0.573234
thorax 1.6858 0.505585 0.651907
lowerneck -13.0264 -1.64681 -0.665081
upperneck 25.5168 0.497064 -4.87513
head 10.3154 0.0892007 -1.46337
rclavicle 4.96962e-015 2.22639e-014
rhumerus -32.5911 19.4232 -72.1403
rradius 77.684
rwrist 12.4317
rhand -7.34537 42.3532
rfingers 7.12502
rthumb 18.5386 13.2166
lclavicle 4.96962e-015 2.22639e-014
lhumerus -58.1936 33.8804 42.5192
lradius 11.8953
lwrist -37.7388
lhand -15.7372 19.1458
lfingers 7.12502
lthumb 10.4536 48.8659
rfemur 8.61824 7.80148 20.9602
rtibia 28.6586
rfoot 6.01755 6.58455
rtoes -8.12426
lfemur -26.8568 -0.434407 -19.2716
ltibia 26.7224
lfoot -7.66739 13.3586
ltoes -0.605855
